<svg data-v-423bf9ae="" xmlns="http://www.w3.org/2000/svg" viewBox="0 0 2497 2125" class="iconLeft"><!----><!----><!----><g data-v-423bf9ae="" id="efa4e0f9-3186-4eb5-94ce-479f7e4a933e" fill="black" transform="matrix(6.054490506946714,0,0,6.054490506946714,2149.67003906639,1006.573674938285)"><path d="M6.01 14L6.01 14Q5.80 14 5.71 13.80L5.71 13.80L4.09 10.16L4.09 10.16Q4.06 10.09 3.98 10.09L3.98 10.09L3.11 10.09L3.11 10.09Q3.01 10.09 3.01 10.19L3.01 10.19L3.01 13.75L3.01 13.75Q3.01 13.86 2.94 13.93L2.94 13.93L2.94 13.93Q2.87 14 2.76 14L2.76 14L0.94 14L0.94 14Q0.83 14 0.76 13.93L0.76 13.93L0.76 13.93Q0.69 13.86 0.69 13.75L0.69 13.75L0.69 4.45L0.69 4.45Q0.69 4.34 0.76 4.27L0.76 4.27L0.76 4.27Q0.83 4.20 0.94 4.20L0.94 4.20L5.01 4.20L5.01 4.20Q5.94 4.20 6.64 4.58L6.64 4.58L6.64 4.58Q7.34 4.96 7.72 5.65L7.72 5.65L7.72 5.65Q8.11 6.34 8.11 7.24L8.11 7.24L8.11 7.24Q8.11 8.16 7.65 8.85L7.65 8.85L7.65 8.85Q7.20 9.53 6.38 9.84L6.38 9.84L6.38 9.84Q6.29 9.88 6.33 9.98L6.33 9.98L8.12 13.71L8.15 13.82L8.15 13.82Q8.15 14 7.92 14L7.92 14L6.01 14ZM3.11 6.19L3.11 6.19Q3.01 6.19 3.01 6.29L3.01 6.29L3.01 8.22L3.01 8.22Q3.01 8.32 3.11 8.32L3.11 8.32L4.63 8.32L4.63 8.32Q5.15 8.32 5.47 8.03L5.47 8.03L5.47 8.03Q5.80 7.74 5.80 7.27L5.80 7.27L5.80 7.27Q5.80 6.78 5.47 6.48L5.47 6.48L5.47 6.48Q5.15 6.19 4.63 6.19L4.63 6.19L3.11 6.19ZM12.82 12.14L12.82 12.14Q13.26 12.14 13.63 12.00L13.63 12.00L13.63 12.00Q14 11.87 14.25 11.65L14.25 11.65L14.25 11.65Q14.34 11.55 14.43 11.55L14.43 11.55L14.43 11.55Q14.52 11.55 14.60 11.65L14.60 11.65L15.47 12.68L15.47 12.68Q15.55 12.78 15.55 12.87L15.55 12.87L15.55 12.87Q15.55 12.96 15.47 13.05L15.47 13.05L15.47 13.05Q14.99 13.55 14.27 13.83L14.27 13.83L14.27 13.83Q13.54 14.11 12.71 14.11L12.71 14.11L12.71 14.11Q11.76 14.11 11.03 13.77L11.03 13.77L11.03 13.77Q10.29 13.43 9.81 12.81L9.81 12.81L9.81 12.81Q9.04 11.83 9.04 10.32L9.04 10.32L9.04 10.32Q9.04 9.65 9.20 9.06L9.20 9.06L9.20 9.06Q9.51 7.97 10.40 7.30L10.40 7.30L10.40 7.30Q11.30 6.64 12.50 6.64L12.50 6.64L12.50 6.64Q13.90 6.64 14.76 7.50L14.76 7.50L14.76 7.50Q15.62 8.37 15.89 9.93L15.89 9.93L15.89 9.93Q15.95 10.32 15.97 10.78L15.97 10.78L15.97 10.78Q15.97 11.03 15.72 11.03L15.72 11.03L11.49 11.03L11.49 11.03Q11.45 11.03 11.42 11.06L11.42 11.06L11.42 11.06Q11.38 11.09 11.40 11.14L11.40 11.14L11.48 11.42L11.48 11.42Q11.62 11.76 11.97 11.95L11.97 11.95L11.97 11.95Q12.32 12.14 12.82 12.14L12.82 12.14ZM12.46 8.64L12.46 8.64Q11.75 8.64 11.49 9.32L11.49 9.32L11.49 9.32Q11.44 9.46 11.42 9.53L11.42 9.53L11.42 9.56L11.42 9.56Q11.42 9.65 11.52 9.65L11.52 9.65L13.44 9.65L13.44 9.65Q13.50 9.65 13.52 9.61L13.52 9.61L13.52 9.61Q13.54 9.58 13.52 9.53L13.52 9.53L13.47 9.35L13.47 9.35Q13.36 9.02 13.10 8.83L13.10 8.83L13.10 8.83Q12.85 8.64 12.46 8.64L12.46 8.64ZM17.19 14L17.19 14Q17.08 14 17.01 13.93L17.01 13.93L17.01 13.93Q16.94 13.86 16.94 13.75L16.94 13.75L16.94 4.45L16.94 4.45Q16.94 4.34 17.01 4.27L17.01 4.27L17.01 4.27Q17.08 4.20 17.19 4.20L17.19 4.20L19.01 4.20L19.01 4.20Q19.12 4.20 19.19 4.27L19.19 4.27L19.19 4.27Q19.26 4.34 19.26 4.45L19.26 4.45L19.26 13.75L19.26 13.75Q19.26 13.86 19.19 13.93L19.19 13.93L19.19 13.93Q19.12 14 19.01 14L19.01 14L17.19 14ZM24.12 12.14L24.12 12.14Q24.56 12.14 24.93 12.00L24.93 12.00L24.93 12.00Q25.30 11.87 25.55 11.65L25.55 11.65L25.55 11.65Q25.63 11.55 25.73 11.55L25.73 11.55L25.73 11.55Q25.82 11.55 25.90 11.65L25.90 11.65L26.77 12.68L26.77 12.68Q26.85 12.78 26.85 12.87L26.85 12.87L26.85 12.87Q26.85 12.96 26.77 13.05L26.77 13.05L26.77 13.05Q26.29 13.55 25.56 13.83L25.56 13.83L25.56 13.83Q24.84 14.11 24.01 14.11L24.01 14.11L24.01 14.11Q23.06 14.11 22.32 13.77L22.32 13.77L22.32 13.77Q21.59 13.43 21.11 12.81L21.11 12.81L21.11 12.81Q20.34 11.83 20.34 10.32L20.34 10.32L20.34 10.32Q20.34 9.65 20.50 9.06L20.50 9.06L20.50 9.06Q20.80 7.97 21.70 7.30L21.70 7.30L21.70 7.30Q22.60 6.64 23.80 6.64L23.80 6.64L23.80 6.64Q25.20 6.64 26.06 7.50L26.06 7.50L26.06 7.50Q26.92 8.37 27.19 9.93L27.19 9.93L27.19 9.93Q27.24 10.32 27.27 10.78L27.27 10.78L27.27 10.78Q27.27 11.03 27.02 11.03L27.02 11.03L22.79 11.03L22.79 11.03Q22.75 11.03 22.71 11.06L22.71 11.06L22.71 11.06Q22.68 11.09 22.69 11.14L22.69 11.14L22.78 11.42L22.78 11.42Q22.92 11.76 23.27 11.95L23.27 11.95L23.27 11.95Q23.62 12.14 24.12 12.14L24.12 12.14ZM23.76 8.64L23.76 8.64Q23.04 8.64 22.79 9.32L22.79 9.32L22.79 9.32Q22.74 9.46 22.72 9.53L22.72 9.53L22.72 9.56L22.72 9.56Q22.72 9.65 22.82 9.65L22.82 9.65L24.74 9.65L24.74 9.65Q24.79 9.65 24.81 9.61L24.81 9.61L24.81 9.61Q24.84 9.58 24.82 9.53L24.82 9.53L24.77 9.35L24.77 9.35Q24.65 9.02 24.40 8.83L24.40 8.83L24.40 8.83Q24.15 8.64 23.76 8.64L23.76 8.64ZM31.25 6.65L31.25 6.65Q32.17 6.65 32.93 6.96L32.93 6.96L32.93 6.96Q33.68 7.28 34.12 7.83L34.12 7.83L34.12 7.83Q34.55 8.39 34.55 9.06L34.55 9.06L34.55 13.75L34.55 13.75Q34.55 13.86 34.48 13.93L34.48 13.93L34.48 13.93Q34.41 14 34.30 14L34.30 14L32.48 14L32.48 14Q32.37 14 32.30 13.93L32.30 13.93L32.30 13.93Q32.23 13.86 32.23 13.75L32.23 13.75L32.23 13.47L32.23 13.47Q32.23 13.40 32.19 13.38L32.19 13.38L32.19 13.38Q32.16 13.37 32.12 13.43L32.12 13.43L32.12 13.43Q31.56 14.11 30.31 14.11L30.31 14.11L30.31 14.11Q29.20 14.11 28.55 13.59L28.55 13.59L28.55 13.59Q27.89 13.06 27.89 12.04L27.89 12.04L27.89 12.04Q27.89 10.96 28.64 10.37L28.64 10.37L28.64 10.37Q29.39 9.79 30.80 9.79L30.80 9.79L32.13 9.79L32.13 9.79Q32.23 9.79 32.23 9.69L32.23 9.69L32.23 9.45L32.23 9.45Q32.23 9.07 31.98 8.86L31.98 8.86L31.98 8.86Q31.74 8.64 31.29 8.64L31.29 8.64L31.29 8.64Q30.97 8.64 30.74 8.74L30.74 8.74L30.74 8.74Q30.51 8.85 30.41 9.03L30.41 9.03L30.41 9.03Q30.34 9.13 30.27 9.18L30.27 9.18L30.27 9.18Q30.21 9.23 30.11 9.21L30.11 9.21L28.24 8.97L28.24 8.97Q27.99 8.95 28.01 8.78L28.01 8.78L28.01 8.78Q28.08 8.18 28.52 7.69L28.52 7.69L28.52 7.69Q28.95 7.21 29.66 6.93L29.66 6.93L29.66 6.93Q30.37 6.65 31.25 6.65L31.25 6.65ZM31.01 12.45L31.01 12.45Q31.54 12.45 31.88 12.17L31.88 12.17L31.88 12.17Q32.23 11.90 32.23 11.45L32.23 11.45L32.23 11.14L32.23 11.14Q32.23 11.05 32.13 11.05L32.13 11.05L31.32 11.05L31.32 11.05Q30.79 11.05 30.50 11.23L30.50 11.23L30.50 11.23Q30.21 11.41 30.21 11.77L30.21 11.77L30.21 11.77Q30.21 12.08 30.42 12.26L30.42 12.26L30.42 12.26Q30.63 12.45 31.01 12.45L31.01 12.45ZM38.78 14.11L38.78 14.11Q37.79 14.11 37.05 13.84L37.05 13.84L37.05 13.84Q36.32 13.57 35.92 13.07L35.92 13.07L35.92 13.07Q35.52 12.57 35.52 11.93L35.52 11.93L35.52 11.86L35.52 11.86Q35.52 11.75 35.59 11.68L35.59 11.68L35.59 11.68Q35.66 11.61 35.77 11.61L35.77 11.61L37.49 11.61L37.49 11.61Q37.74 11.61 37.74 11.69L37.74 11.69L37.74 11.77L37.74 11.77Q37.74 12.04 38.03 12.21L38.03 12.21L38.03 12.21Q38.32 12.39 38.77 12.39L38.77 12.39L38.77 12.39Q39.16 12.39 39.40 12.26L39.40 12.26L39.40 12.26Q39.63 12.12 39.63 11.90L39.63 11.90L39.63 11.90Q39.63 11.68 39.38 11.57L39.38 11.57L39.38 11.57Q39.13 11.47 38.58 11.37L38.58 11.37L38.58 11.37Q37.70 11.20 37.16 10.96L37.16 10.96L37.16 10.96Q36.46 10.67 36.03 10.22L36.03 10.22L36.03 10.22Q35.60 9.77 35.60 9.02L35.60 9.02L35.60 9.02Q35.60 7.92 36.45 7.29L36.45 7.29L36.45 7.29Q37.30 6.65 38.68 6.65L38.68 6.65L38.68 6.65Q39.62 6.65 40.33 6.95L40.33 6.95L40.33 6.95Q41.03 7.25 41.43 7.80L41.43 7.80L41.43 7.80Q41.82 8.34 41.82 9.06L41.82 9.06L41.82 9.06Q41.82 9.13 41.75 9.18L41.75 9.18L41.75 9.18Q41.68 9.23 41.57 9.23L41.57 9.23L39.90 9.23L39.90 9.23Q39.65 9.23 39.65 9.14L39.65 9.14L39.65 9.06L39.65 9.06Q39.65 8.79 39.40 8.62L39.40 8.62L39.40 8.62Q39.14 8.46 38.71 8.46L38.71 8.46L38.71 8.46Q38.32 8.46 38.07 8.59L38.07 8.59L38.07 8.59Q37.83 8.72 37.83 8.96L37.83 8.96L37.83 8.96Q37.83 9.20 38.09 9.30L38.09 9.30L38.09 9.30Q38.36 9.41 38.99 9.53L38.99 9.53L38.99 9.53Q39.84 9.70 40.14 9.80L40.14 9.80L40.14 9.80Q40.99 10.08 41.48 10.56L41.48 10.56L41.48 10.56Q41.96 11.03 41.96 11.83L41.96 11.83L41.96 11.83Q41.96 12.92 41.10 13.52L41.10 13.52L41.10 13.52Q40.24 14.11 38.78 14.11L38.78 14.11ZM46.49 12.14L46.49 12.14Q46.93 12.14 47.30 12.00L47.30 12.00L47.30 12.00Q47.67 11.87 47.92 11.65L47.92 11.65L47.92 11.65Q48.01 11.55 48.10 11.55L48.10 11.55L48.10 11.55Q48.19 11.55 48.27 11.65L48.27 11.65L49.14 12.68L49.14 12.68Q49.22 12.78 49.22 12.87L49.22 12.87L49.22 12.87Q49.22 12.96 49.14 13.05L49.14 13.05L49.14 13.05Q48.66 13.55 47.94 13.83L47.94 13.83L47.94 13.83Q47.21 14.11 46.38 14.11L46.38 14.11L46.38 14.11Q45.43 14.11 44.70 13.77L44.70 13.77L44.70 13.77Q43.96 13.43 43.48 12.81L43.48 12.81L43.48 12.81Q42.71 11.83 42.71 10.32L42.71 10.32L42.71 10.32Q42.71 9.65 42.87 9.06L42.87 9.06L42.87 9.06Q43.18 7.97 44.07 7.30L44.07 7.30L44.07 7.30Q44.97 6.64 46.17 6.64L46.17 6.64L46.17 6.64Q47.57 6.64 48.43 7.50L48.43 7.50L48.43 7.50Q49.29 8.37 49.56 9.93L49.56 9.93L49.56 9.93Q49.62 10.32 49.64 10.78L49.64 10.78L49.64 10.78Q49.64 11.03 49.39 11.03L49.39 11.03L45.16 11.03L45.16 11.03Q45.12 11.03 45.09 11.06L45.09 11.06L45.09 11.06Q45.05 11.09 45.07 11.14L45.07 11.14L45.15 11.42L45.15 11.42Q45.29 11.76 45.64 11.95L45.64 11.95L45.64 11.95Q45.99 12.14 46.49 12.14L46.49 12.14ZM46.13 8.64L46.13 8.64Q45.42 8.64 45.16 9.32L45.16 9.32L45.16 9.32Q45.11 9.46 45.09 9.53L45.09 9.53L45.09 9.56L45.09 9.56Q45.09 9.65 45.19 9.65L45.19 9.65L47.11 9.65L47.11 9.65Q47.17 9.65 47.19 9.61L47.19 9.61L47.19 9.61Q47.21 9.58 47.19 9.53L47.19 9.53L47.14 9.35L47.14 9.35Q47.03 9.02 46.77 8.83L46.77 8.83L46.77 8.83Q46.52 8.64 46.13 8.64L46.13 8.64ZM54.92 4.45L54.92 4.45Q54.92 4.34 54.99 4.27L54.99 4.27L54.99 4.27Q55.06 4.20 55.17 4.20L55.17 4.20L56.99 4.20L56.99 4.20Q57.11 4.20 57.18 4.27L57.18 4.27L57.18 4.27Q57.25 4.34 57.25 4.45L57.25 4.45L57.25 13.75L57.25 13.75Q57.25 13.86 57.18 13.93L57.18 13.93L57.18 13.93Q57.11 14 56.99 14L56.99 14L55.17 14L55.17 14Q55.06 14 54.99 13.93L54.99 13.93L54.99 13.93Q54.92 13.86 54.92 13.75L54.92 13.75L54.92 13.41L54.92 13.41Q54.92 13.34 54.89 13.33L54.89 13.33L54.89 13.33Q54.85 13.31 54.81 13.37L54.81 13.37L54.81 13.37Q54.28 14.11 53.21 14.11L53.21 14.11L53.21 14.11Q52.30 14.11 51.53 13.51L51.53 13.51L51.53 13.51Q50.76 12.91 50.48 11.96L50.48 11.96L50.48 11.96Q50.26 11.27 50.26 10.35L50.26 10.35L50.26 10.35Q50.26 9.35 50.55 8.58L50.55 8.58L50.55 8.58Q50.88 7.71 51.60 7.17L51.60 7.17L51.60 7.17Q52.32 6.64 53.21 6.64L53.21 6.64L53.21 6.64Q54.28 6.64 54.81 7.28L54.81 7.28L54.81 7.28Q54.85 7.34 54.89 7.32L54.89 7.32L54.89 7.32Q54.92 7.31 54.92 7.24L54.92 7.24L54.92 4.45ZM54.67 11.54L54.67 11.54Q54.91 11.09 54.91 10.39L54.91 10.39L54.91 10.39Q54.91 9.62 54.66 9.16L54.66 9.16L54.66 9.16Q54.36 8.68 53.84 8.68L53.84 8.68L53.84 8.68Q53.30 8.68 53.00 9.17L53.00 9.17L53.00 9.17Q52.75 9.63 52.75 10.39L52.75 10.39L52.75 10.39Q52.75 11.10 52.99 11.55L52.99 11.55L52.99 11.55Q53.28 12.07 53.84 12.07L53.84 12.07L53.84 12.07Q54.38 12.07 54.67 11.54L54.67 11.54Z"></path></g><!----><g data-v-423bf9ae="" id="8e6d85aa-5077-45cf-a628-d165412e0271" transform="matrix(4.857988823784722,0,0,4.857988823784722,-176.26952239800653,-181.25270802441764)" stroke="none" fill="black"><path d="M347.907 474.609h-243.12a3.999 3.999 0 1 1 0-8h239.121V275.89l-50.771 68.83a4.004 4.004 0 0 1-3.22 1.63H102.356v90.681a3.999 3.999 0 1 1-8 0V342.35c0-1.06.43-2.09 1.17-2.83.75-.75 1.78-1.17 2.83-1.17h189.54l56.79-77c1-1.359 2.86-1.95 4.471-1.42a4 4 0 0 1 2.75 3.8v206.88a3.98 3.98 0 0 1-1.17 2.82 3.975 3.975 0 0 1-2.83 1.179zM98.356 461.03c-2.2 0-4-1.79-4-4 0-2.2 1.8-4 4-4a3.999 3.999 0 1 1 0 8z"></path><path d="M416.137 474.6h-68.229c-1.051 0-2.08-.42-2.83-1.16a4.063 4.063 0 0 1-1.17-2.83V263.73a3.97 3.97 0 0 1 2.84-3.83c1.67-.5 3.53.17 4.49 1.61l13.149 19.771c.43.659.66 1.409.67 2.189 0 1.36-.67 2.61-1.79 3.36-.66.43-1.42.67-2.21.67-1.35 0-2.59-.67-3.34-1.79l-5.81-8.74v189.64h60.239V346.35h-11.96c-1.34 0-2.59-.67-3.33-1.79l-16.989-25.54a3.977 3.977 0 0 1-.59-3c.21-1.05.819-1.96 1.71-2.55a3.966 3.966 0 0 1 2.21-.67c1.35 0 2.59.67 3.33 1.79l15.8 23.76h13.81c1.061 0 2.09.42 2.83 1.17.75.74 1.18 1.78 1.18 2.83v128.26c0 1.061-.42 2.07-1.18 2.83a3.981 3.981 0 0 1-2.83 1.16zm-44.01-170.451a3.998 3.998 0 0 1-2.21-7.33 3.988 3.988 0 0 1 5.54 1.12c.59.88.8 1.95.59 3a3.982 3.982 0 0 1-1.7 2.54c-.66.441-1.43.67-2.22.67z"></path><path d="M289.917 346.35H187.156c-2.2 0-4-1.8-4-4 0-2.21 1.8-4 4-4h100.74l52.091-70.62H100.376l-52.08 70.62h98.86a3.999 3.999 0 1 1 0 8H40.376c-1.5 0-2.9-.87-3.57-2.2-.68-1.34-.54-2.97.35-4.18l57.98-78.62a4.04 4.04 0 0 1 3.22-1.62h249.551c1.489 0 2.899.86 3.569 2.2.67 1.33.54 2.97-.35 4.17l-57.99 78.62a4.004 4.004 0 0 1-3.219 1.63zm-122.761 0c-2.2 0-4-1.8-4-4a3.999 3.999 0 1 1 4 4z"></path><path d="M471.627 346.35h-71.44c-1.34 0-2.59-.67-3.33-1.79l-52.279-78.62a3.973 3.973 0 0 1-.19-4.1c.69-1.3 2.04-2.11 3.521-2.11h70.909c1.341 0 2.58.66 3.32 1.771l52.811 78.62c.819 1.229.899 2.8.199 4.109a3.98 3.98 0 0 1-3.521 2.12zm-69.3-8h61.79l-47.431-70.62h-61.319l46.96 70.62zM158.546 232.49c-1.88 0-3.52-1.33-3.91-3.17-4.52-21.12-13.15-38.46-26.38-53.03-14.9-16.37-35.24-28.9-62.2-38.3-2.08-.73-3.19-3.01-2.46-5.09a4.007 4.007 0 0 1 3.78-2.69c.44 0 .89.08 1.31.22 14.24 4.96 27.03 10.96 38.03 17.84 10.56 6.6 19.8 14.22 27.46 22.64 7.27 7.99 13.37 17 18.12 26.76 4.45 9.12 7.86 19.2 10.16 29.97v.01a4.006 4.006 0 0 1-3.91 4.84z"></path><path d="M64.497 138.17c-1.04 0-2.03-.4-2.78-1.12a4.008 4.008 0 0 1-.11-5.66l20.66-21.48c.77-.79 1.79-1.22 2.89-1.22 1.04 0 2.02.39 2.77 1.11a4.008 4.008 0 0 1 .11 5.66l-20.66 21.48a3.982 3.982 0 0 1-2.88 1.23z"></path><path d="M71.997 167.45c-1.82 0-3.42-1.23-3.87-3.01l-7.51-29.28c-.26-1.03-.11-2.11.43-3.03.55-.92 1.42-1.57 2.45-1.84.33-.08.67-.12 1-.12a3.99 3.99 0 0 1 3.87 3l7.51 29.29c.26 1.03.11 2.11-.43 3.03-.55.92-1.42 1.57-2.45 1.84-.33.08-.661.12-1 .12zM247.707 232.49c-2.21 0-4-1.8-4-4V89.13c0-2.2 1.79-4 4-4 2.2 0 3.99 1.8 3.99 4v139.36c-.001 2.2-1.791 4-3.99 4z"></path><path d="M220.057 111.13c-1.36 0-2.61-.68-3.35-1.82a4 4 0 0 1-.56-3.01c.22-1.05.83-1.94 1.73-2.53l27.64-17.99c.65-.43 1.41-.65 2.18-.65a4 4 0 0 1 2.19 7.35l-27.65 18c-.651.42-1.401.65-2.18.65z"></path><path d="M275.337 111.13c-.771 0-1.53-.23-2.18-.65l-27.641-18a4 4 0 1 1 4.37-6.7l27.63 17.99c.9.59 1.521 1.48 1.74 2.53.22 1.04.021 2.11-.57 3.01a3.974 3.974 0 0 1-3.349 1.82zM183.977 161.14c-2.06 0-3.77-1.54-3.97-3.59-2.2-21.39-10.17-39.09-24.38-54.11-14.66-15.49-36.2-27.86-64.03-36.76a3.993 3.993 0 0 1-2.34-1.98c-.48-.95-.57-2.03-.25-3.05a3.986 3.986 0 0 1 3.81-2.78c.41 0 .82.06 1.22.19 14.63 4.68 27.72 10.33 38.92 16.81 11.12 6.43 20.7 13.85 28.48 22.07 15.29 16.11 24.21 35.9 26.53 58.8.1 1.06-.21 2.1-.88 2.93a3.998 3.998 0 0 1-3.11 1.47z"></path><path d="M92.816 66.87c-1.04 0-2.02-.4-2.77-1.12a3.976 3.976 0 0 1-1.23-2.8c-.02-1.07.38-2.08 1.12-2.85l20.65-21.48c.76-.79 1.79-1.23 2.88-1.23 1.04 0 2.03.4 2.78 1.12.77.74 1.2 1.74 1.22 2.8.02 1.07-.37 2.09-1.11 2.86l-20.66 21.47a3.959 3.959 0 0 1-2.88 1.23z"></path><path d="M100.316 96.16a4 4 0 0 1-3.87-3.01l-7.51-29.29c-.54-2.14.75-4.32 2.89-4.87.32-.08.66-.12.99-.12a3.98 3.98 0 0 1 3.87 3.01l7.51 29.28a4.016 4.016 0 0 1-3.88 5zM352.097 232.49c-.28 0-.56-.03-.84-.09a3.962 3.962 0 0 1-2.52-1.74 3.94 3.94 0 0 1-.551-3.01c2.29-10.77 5.71-20.86 10.15-29.98 4.76-9.76 10.86-18.76 18.13-26.76 7.65-8.42 16.89-16.04 27.46-22.64 10.99-6.87 23.78-12.87 38.021-17.83.42-.15.869-.23 1.319-.23 1.69 0 3.21 1.08 3.771 2.69.35 1 .29 2.09-.181 3.05-.46.96-1.27 1.69-2.279 2.04-26.95 9.4-47.3 21.93-62.19 38.3-13.24 14.57-21.87 31.91-26.38 53.03a4.011 4.011 0 0 1-3.91 3.17z"></path><path d="M446.137 138.17c-1.09 0-2.12-.44-2.88-1.23l-20.66-21.48a4.01 4.01 0 0 1 .11-5.66 3.968 3.968 0 0 1 2.77-1.11c1.101 0 2.13.43 2.891 1.23l20.66 21.48c.739.77 1.13 1.78 1.109 2.85a3.966 3.966 0 0 1-1.22 2.8c-.75.72-1.74 1.12-2.78 1.12z"></path><path d="M438.646 167.45c-.34 0-.67-.04-1-.12a4.009 4.009 0 0 1-2.88-4.87l7.5-29.28a3.988 3.988 0 0 1 3.87-3.01c.34 0 .67.04 1 .12 2.13.55 3.42 2.73 2.88 4.87l-7.5 29.28a3.987 3.987 0 0 1-3.87 3.01zM326.667 161.14c-.14 0-.271 0-.41-.02-2.2-.22-3.8-2.19-3.58-4.38 2.311-22.9 11.23-42.69 26.521-58.8 7.779-8.22 17.359-15.64 28.479-22.07 11.2-6.48 24.3-12.13 38.93-16.81a4.005 4.005 0 0 1 5.031 2.59c.67 2.1-.49 4.36-2.59 5.03-27.83 8.9-49.38 21.26-64.04 36.76-14.21 15.02-22.18 32.72-24.37 54.11a3.978 3.978 0 0 1-3.971 3.59z"></path><path d="M417.827 66.87c-1.101 0-2.12-.44-2.891-1.23l-20.659-21.47a4.01 4.01 0 0 1 .109-5.66 4.001 4.001 0 0 1 5.661.11l20.66 21.48a3.985 3.985 0 0 1-.11 5.65 3.98 3.98 0 0 1-2.77 1.12z"></path><path d="M410.316 96.16a4.016 4.016 0 0 1-3.88-5l7.511-29.28a4 4 0 0 1 3.88-3.01c.33 0 .66.04.989.12a4.005 4.005 0 0 1 2.881 4.87l-7.511 29.29a3.99 3.99 0 0 1-3.87 3.01z"></path></g><!----></svg>