<svg data-v-fde0c5aa="" xmlns="http://www.w3.org/2000/svg" viewBox="0 0 300 300" class="font"><!----><defs data-v-fde0c5aa=""><!----></defs><rect data-v-fde0c5aa="" fill="#000000" x="0" y="0" width="300px" height="300px" class="logo-background-square"></rect><defs data-v-fde0c5aa=""><!----></defs><g data-v-fde0c5aa="" id="04fe0e0a-3fc6-45a4-ba88-72dda383ff4b" fill="#FFFFFF" transform="matrix(3.889674587311613,0,0,3.889674587311613,37.31612431218602,114.39003019181735)"><path d="M6.01 14L6.01 14Q5.80 14 5.71 13.80L5.71 13.80L4.09 10.16L4.09 10.16Q4.06 10.09 3.98 10.09L3.98 10.09L3.11 10.09L3.11 10.09Q3.01 10.09 3.01 10.19L3.01 10.19L3.01 13.75L3.01 13.75Q3.01 13.86 2.94 13.93L2.94 13.93L2.94 13.93Q2.87 14 2.76 14L2.76 14L0.94 14L0.94 14Q0.83 14 0.76 13.93L0.76 13.93L0.76 13.93Q0.69 13.86 0.69 13.75L0.69 13.75L0.69 4.45L0.69 4.45Q0.69 4.34 0.76 4.27L0.76 4.27L0.76 4.27Q0.83 4.20 0.94 4.20L0.94 4.20L5.01 4.20L5.01 4.20Q5.94 4.20 6.64 4.58L6.64 4.58L6.64 4.58Q7.34 4.96 7.72 5.65L7.72 5.65L7.72 5.65Q8.11 6.34 8.11 7.24L8.11 7.24L8.11 7.24Q8.11 8.16 7.65 8.85L7.65 8.85L7.65 8.85Q7.20 9.53 6.38 9.84L6.38 9.84L6.38 9.84Q6.29 9.88 6.33 9.98L6.33 9.98L8.12 13.71L8.15 13.82L8.15 13.82Q8.15 14 7.92 14L7.92 14L6.01 14ZM3.11 6.19L3.11 6.19Q3.01 6.19 3.01 6.29L3.01 6.29L3.01 8.22L3.01 8.22Q3.01 8.32 3.11 8.32L3.11 8.32L4.63 8.32L4.63 8.32Q5.15 8.32 5.47 8.03L5.47 8.03L5.47 8.03Q5.80 7.74 5.80 7.27L5.80 7.27L5.80 7.27Q5.80 6.78 5.47 6.48L5.47 6.48L5.47 6.48Q5.15 6.19 4.63 6.19L4.63 6.19L3.11 6.19ZM12.82 12.14L12.82 12.14Q13.26 12.14 13.63 12.00L13.63 12.00L13.63 12.00Q14 11.87 14.25 11.65L14.25 11.65L14.25 11.65Q14.34 11.55 14.43 11.55L14.43 11.55L14.43 11.55Q14.52 11.55 14.60 11.65L14.60 11.65L15.47 12.68L15.47 12.68Q15.55 12.78 15.55 12.87L15.55 12.87L15.55 12.87Q15.55 12.96 15.47 13.05L15.47 13.05L15.47 13.05Q14.99 13.55 14.27 13.83L14.27 13.83L14.27 13.83Q13.54 14.11 12.71 14.11L12.71 14.11L12.71 14.11Q11.76 14.11 11.03 13.77L11.03 13.77L11.03 13.77Q10.29 13.43 9.81 12.81L9.81 12.81L9.81 12.81Q9.04 11.83 9.04 10.32L9.04 10.32L9.04 10.32Q9.04 9.65 9.20 9.06L9.20 9.06L9.20 9.06Q9.51 7.97 10.40 7.30L10.40 7.30L10.40 7.30Q11.30 6.64 12.50 6.64L12.50 6.64L12.50 6.64Q13.90 6.64 14.76 7.50L14.76 7.50L14.76 7.50Q15.62 8.37 15.89 9.93L15.89 9.93L15.89 9.93Q15.95 10.32 15.97 10.78L15.97 10.78L15.97 10.78Q15.97 11.03 15.72 11.03L15.72 11.03L11.49 11.03L11.49 11.03Q11.45 11.03 11.42 11.06L11.42 11.06L11.42 11.06Q11.38 11.09 11.40 11.14L11.40 11.14L11.48 11.42L11.48 11.42Q11.62 11.76 11.97 11.95L11.97 11.95L11.97 11.95Q12.32 12.14 12.82 12.14L12.82 12.14ZM12.46 8.64L12.46 8.64Q11.75 8.64 11.49 9.32L11.49 9.32L11.49 9.32Q11.44 9.46 11.42 9.53L11.42 9.53L11.42 9.56L11.42 9.56Q11.42 9.65 11.52 9.65L11.52 9.65L13.44 9.65L13.44 9.65Q13.50 9.65 13.52 9.61L13.52 9.61L13.52 9.61Q13.54 9.58 13.52 9.53L13.52 9.53L13.47 9.35L13.47 9.35Q13.36 9.02 13.10 8.83L13.10 8.83L13.10 8.83Q12.85 8.64 12.46 8.64L12.46 8.64ZM17.19 14L17.19 14Q17.08 14 17.01 13.93L17.01 13.93L17.01 13.93Q16.94 13.86 16.94 13.75L16.94 13.75L16.94 4.45L16.94 4.45Q16.94 4.34 17.01 4.27L17.01 4.27L17.01 4.27Q17.08 4.20 17.19 4.20L17.19 4.20L19.01 4.20L19.01 4.20Q19.12 4.20 19.19 4.27L19.19 4.27L19.19 4.27Q19.26 4.34 19.26 4.45L19.26 4.45L19.26 13.75L19.26 13.75Q19.26 13.86 19.19 13.93L19.19 13.93L19.19 13.93Q19.12 14 19.01 14L19.01 14L17.19 14ZM24.12 12.14L24.12 12.14Q24.56 12.14 24.93 12.00L24.93 12.00L24.93 12.00Q25.30 11.87 25.55 11.65L25.55 11.65L25.55 11.65Q25.63 11.55 25.73 11.55L25.73 11.55L25.73 11.55Q25.82 11.55 25.90 11.65L25.90 11.65L26.77 12.68L26.77 12.68Q26.85 12.78 26.85 12.87L26.85 12.87L26.85 12.87Q26.85 12.96 26.77 13.05L26.77 13.05L26.77 13.05Q26.29 13.55 25.56 13.83L25.56 13.83L25.56 13.83Q24.84 14.11 24.01 14.11L24.01 14.11L24.01 14.11Q23.06 14.11 22.32 13.77L22.32 13.77L22.32 13.77Q21.59 13.43 21.11 12.81L21.11 12.81L21.11 12.81Q20.34 11.83 20.34 10.32L20.34 10.32L20.34 10.32Q20.34 9.65 20.50 9.06L20.50 9.06L20.50 9.06Q20.80 7.97 21.70 7.30L21.70 7.30L21.70 7.30Q22.60 6.64 23.80 6.64L23.80 6.64L23.80 6.64Q25.20 6.64 26.06 7.50L26.06 7.50L26.06 7.50Q26.92 8.37 27.19 9.93L27.19 9.93L27.19 9.93Q27.24 10.32 27.27 10.78L27.27 10.78L27.27 10.78Q27.27 11.03 27.02 11.03L27.02 11.03L22.79 11.03L22.79 11.03Q22.75 11.03 22.71 11.06L22.71 11.06L22.71 11.06Q22.68 11.09 22.69 11.14L22.69 11.14L22.78 11.42L22.78 11.42Q22.92 11.76 23.27 11.95L23.27 11.95L23.27 11.95Q23.62 12.14 24.12 12.14L24.12 12.14ZM23.76 8.64L23.76 8.64Q23.04 8.64 22.79 9.32L22.79 9.32L22.79 9.32Q22.74 9.46 22.72 9.53L22.72 9.53L22.72 9.56L22.72 9.56Q22.72 9.65 22.82 9.65L22.82 9.65L24.74 9.65L24.74 9.65Q24.79 9.65 24.81 9.61L24.81 9.61L24.81 9.61Q24.84 9.58 24.82 9.53L24.82 9.53L24.77 9.35L24.77 9.35Q24.65 9.02 24.40 8.83L24.40 8.83L24.40 8.83Q24.15 8.64 23.76 8.64L23.76 8.64ZM31.25 6.65L31.25 6.65Q32.17 6.65 32.93 6.96L32.93 6.96L32.93 6.96Q33.68 7.28 34.12 7.83L34.12 7.83L34.12 7.83Q34.55 8.39 34.55 9.06L34.55 9.06L34.55 13.75L34.55 13.75Q34.55 13.86 34.48 13.93L34.48 13.93L34.48 13.93Q34.41 14 34.30 14L34.30 14L32.48 14L32.48 14Q32.37 14 32.30 13.93L32.30 13.93L32.30 13.93Q32.23 13.86 32.23 13.75L32.23 13.75L32.23 13.47L32.23 13.47Q32.23 13.40 32.19 13.38L32.19 13.38L32.19 13.38Q32.16 13.37 32.12 13.43L32.12 13.43L32.12 13.43Q31.56 14.11 30.31 14.11L30.31 14.11L30.31 14.11Q29.20 14.11 28.55 13.59L28.55 13.59L28.55 13.59Q27.89 13.06 27.89 12.04L27.89 12.04L27.89 12.04Q27.89 10.96 28.64 10.37L28.64 10.37L28.64 10.37Q29.39 9.79 30.80 9.79L30.80 9.79L32.13 9.79L32.13 9.79Q32.23 9.79 32.23 9.69L32.23 9.69L32.23 9.45L32.23 9.45Q32.23 9.07 31.98 8.86L31.98 8.86L31.98 8.86Q31.74 8.64 31.29 8.64L31.29 8.64L31.29 8.64Q30.97 8.64 30.74 8.74L30.74 8.74L30.74 8.74Q30.51 8.85 30.41 9.03L30.41 9.03L30.41 9.03Q30.34 9.13 30.27 9.18L30.27 9.18L30.27 9.18Q30.21 9.23 30.11 9.21L30.11 9.21L28.24 8.97L28.24 8.97Q27.99 8.95 28.01 8.78L28.01 8.78L28.01 8.78Q28.08 8.18 28.52 7.69L28.52 7.69L28.52 7.69Q28.95 7.21 29.66 6.93L29.66 6.93L29.66 6.93Q30.37 6.65 31.25 6.65L31.25 6.65ZM31.01 12.45L31.01 12.45Q31.54 12.45 31.88 12.17L31.88 12.17L31.88 12.17Q32.23 11.90 32.23 11.45L32.23 11.45L32.23 11.14L32.23 11.14Q32.23 11.05 32.13 11.05L32.13 11.05L31.32 11.05L31.32 11.05Q30.79 11.05 30.50 11.23L30.50 11.23L30.50 11.23Q30.21 11.41 30.21 11.77L30.21 11.77L30.21 11.77Q30.21 12.08 30.42 12.26L30.42 12.26L30.42 12.26Q30.63 12.45 31.01 12.45L31.01 12.45ZM38.78 14.11L38.78 14.11Q37.79 14.11 37.05 13.84L37.05 13.84L37.05 13.84Q36.32 13.57 35.92 13.07L35.92 13.07L35.92 13.07Q35.52 12.57 35.52 11.93L35.52 11.93L35.52 11.86L35.52 11.86Q35.52 11.75 35.59 11.68L35.59 11.68L35.59 11.68Q35.66 11.61 35.77 11.61L35.77 11.61L37.49 11.61L37.49 11.61Q37.74 11.61 37.74 11.69L37.74 11.69L37.74 11.77L37.74 11.77Q37.74 12.04 38.03 12.21L38.03 12.21L38.03 12.21Q38.32 12.39 38.77 12.39L38.77 12.39L38.77 12.39Q39.16 12.39 39.40 12.26L39.40 12.26L39.40 12.26Q39.63 12.12 39.63 11.90L39.63 11.90L39.63 11.90Q39.63 11.68 39.38 11.57L39.38 11.57L39.38 11.57Q39.13 11.47 38.58 11.37L38.58 11.37L38.58 11.37Q37.70 11.20 37.16 10.96L37.16 10.96L37.16 10.96Q36.46 10.67 36.03 10.22L36.03 10.22L36.03 10.22Q35.60 9.77 35.60 9.02L35.60 9.02L35.60 9.02Q35.60 7.92 36.45 7.29L36.45 7.29L36.45 7.29Q37.30 6.65 38.68 6.65L38.68 6.65L38.68 6.65Q39.62 6.65 40.33 6.95L40.33 6.95L40.33 6.95Q41.03 7.25 41.43 7.80L41.43 7.80L41.43 7.80Q41.82 8.34 41.82 9.06L41.82 9.06L41.82 9.06Q41.82 9.13 41.75 9.18L41.75 9.18L41.75 9.18Q41.68 9.23 41.57 9.23L41.57 9.23L39.90 9.23L39.90 9.23Q39.65 9.23 39.65 9.14L39.65 9.14L39.65 9.06L39.65 9.06Q39.65 8.79 39.40 8.62L39.40 8.62L39.40 8.62Q39.14 8.46 38.71 8.46L38.71 8.46L38.71 8.46Q38.32 8.46 38.07 8.59L38.07 8.59L38.07 8.59Q37.83 8.72 37.83 8.96L37.83 8.96L37.83 8.96Q37.83 9.20 38.09 9.30L38.09 9.30L38.09 9.30Q38.36 9.41 38.99 9.53L38.99 9.53L38.99 9.53Q39.84 9.70 40.14 9.80L40.14 9.80L40.14 9.80Q40.99 10.08 41.48 10.56L41.48 10.56L41.48 10.56Q41.96 11.03 41.96 11.83L41.96 11.83L41.96 11.83Q41.96 12.92 41.10 13.52L41.10 13.52L41.10 13.52Q40.24 14.11 38.78 14.11L38.78 14.11ZM46.49 12.14L46.49 12.14Q46.93 12.14 47.30 12.00L47.30 12.00L47.30 12.00Q47.67 11.87 47.92 11.65L47.92 11.65L47.92 11.65Q48.01 11.55 48.10 11.55L48.10 11.55L48.10 11.55Q48.19 11.55 48.27 11.65L48.27 11.65L49.14 12.68L49.14 12.68Q49.22 12.78 49.22 12.87L49.22 12.87L49.22 12.87Q49.22 12.96 49.14 13.05L49.14 13.05L49.14 13.05Q48.66 13.55 47.94 13.83L47.94 13.83L47.94 13.83Q47.21 14.11 46.38 14.11L46.38 14.11L46.38 14.11Q45.43 14.11 44.70 13.77L44.70 13.77L44.70 13.77Q43.96 13.43 43.48 12.81L43.48 12.81L43.48 12.81Q42.71 11.83 42.71 10.32L42.71 10.32L42.71 10.32Q42.71 9.65 42.87 9.06L42.87 9.06L42.87 9.06Q43.18 7.97 44.07 7.30L44.07 7.30L44.07 7.30Q44.97 6.64 46.17 6.64L46.17 6.64L46.17 6.64Q47.57 6.64 48.43 7.50L48.43 7.50L48.43 7.50Q49.29 8.37 49.56 9.93L49.56 9.93L49.56 9.93Q49.62 10.32 49.64 10.78L49.64 10.78L49.64 10.78Q49.64 11.03 49.39 11.03L49.39 11.03L45.16 11.03L45.16 11.03Q45.12 11.03 45.09 11.06L45.09 11.06L45.09 11.06Q45.05 11.09 45.07 11.14L45.07 11.14L45.15 11.42L45.15 11.42Q45.29 11.76 45.64 11.95L45.64 11.95L45.64 11.95Q45.99 12.14 46.49 12.14L46.49 12.14ZM46.13 8.64L46.13 8.64Q45.42 8.64 45.16 9.32L45.16 9.32L45.16 9.32Q45.11 9.46 45.09 9.53L45.09 9.53L45.09 9.56L45.09 9.56Q45.09 9.65 45.19 9.65L45.19 9.65L47.11 9.65L47.11 9.65Q47.17 9.65 47.19 9.61L47.19 9.61L47.19 9.61Q47.21 9.58 47.19 9.53L47.19 9.53L47.14 9.35L47.14 9.35Q47.03 9.02 46.77 8.83L46.77 8.83L46.77 8.83Q46.52 8.64 46.13 8.64L46.13 8.64ZM54.92 4.45L54.92 4.45Q54.92 4.34 54.99 4.27L54.99 4.27L54.99 4.27Q55.06 4.20 55.17 4.20L55.17 4.20L56.99 4.20L56.99 4.20Q57.11 4.20 57.18 4.27L57.18 4.27L57.18 4.27Q57.25 4.34 57.25 4.45L57.25 4.45L57.25 13.75L57.25 13.75Q57.25 13.86 57.18 13.93L57.18 13.93L57.18 13.93Q57.11 14 56.99 14L56.99 14L55.17 14L55.17 14Q55.06 14 54.99 13.93L54.99 13.93L54.99 13.93Q54.92 13.86 54.92 13.75L54.92 13.75L54.92 13.41L54.92 13.41Q54.92 13.34 54.89 13.33L54.89 13.33L54.89 13.33Q54.85 13.31 54.81 13.37L54.81 13.37L54.81 13.37Q54.28 14.11 53.21 14.11L53.21 14.11L53.21 14.11Q52.30 14.11 51.53 13.51L51.53 13.51L51.53 13.51Q50.76 12.91 50.48 11.96L50.48 11.96L50.48 11.96Q50.26 11.27 50.26 10.35L50.26 10.35L50.26 10.35Q50.26 9.35 50.55 8.58L50.55 8.58L50.55 8.58Q50.88 7.71 51.60 7.17L51.60 7.17L51.60 7.17Q52.32 6.64 53.21 6.64L53.21 6.64L53.21 6.64Q54.28 6.64 54.81 7.28L54.81 7.28L54.81 7.28Q54.85 7.34 54.89 7.32L54.89 7.32L54.89 7.32Q54.92 7.31 54.92 7.24L54.92 7.24L54.92 4.45ZM54.67 11.54L54.67 11.54Q54.91 11.09 54.91 10.39L54.91 10.39L54.91 10.39Q54.91 9.62 54.66 9.16L54.66 9.16L54.66 9.16Q54.36 8.68 53.84 8.68L53.84 8.68L53.84 8.68Q53.30 8.68 53.00 9.17L53.00 9.17L53.00 9.17Q52.75 9.63 52.75 10.39L52.75 10.39L52.75 10.39Q52.75 11.10 52.99 11.55L52.99 11.55L52.99 11.55Q53.28 12.07 53.84 12.07L53.84 12.07L53.84 12.07Q54.38 12.07 54.67 11.54L54.67 11.54Z"></path></g><!----><!----></svg>