<svg data-v-423bf9ae=""
	xmlns="http://www.w3.org/2000/svg" viewBox="0 0 2497 2125" class="iconLeft">
	<!---->
	<!---->
	<!---->

	<!---->
	<g data-v-423bf9ae="" id="8e6d85aa-5077-45cf-a628-d165412e0271" transform="matrix(4.857988823784722,0,0,4.857988823784722,-176.26952239800653,-181.25270802441764)" stroke="none" fill="#e91e63">
		<path d="M347.907 474.609h-243.12a3.999 3.999 0 1 1 0-8h239.121V275.89l-50.771 68.83a4.004 4.004 0 0 1-3.22 1.63H102.356v90.681a3.999 3.999 0 1 1-8 0V342.35c0-1.06.43-2.09 1.17-2.83.75-.75 1.78-1.17 2.83-1.17h189.54l56.79-77c1-1.359 2.86-1.95 4.471-1.42a4 4 0 0 1 2.75 3.8v206.88a3.98 3.98 0 0 1-1.17 2.82 3.975 3.975 0 0 1-2.83 1.179zM98.356 461.03c-2.2 0-4-1.79-4-4 0-2.2 1.8-4 4-4a3.999 3.999 0 1 1 0 8z"></path>
		<path d="M416.137 474.6h-68.229c-1.051 0-2.08-.42-2.83-1.16a4.063 4.063 0 0 1-1.17-2.83V263.73a3.97 3.97 0 0 1 2.84-3.83c1.67-.5 3.53.17 4.49 1.61l13.149 19.771c.43.659.66 1.409.67 2.189 0 1.36-.67 2.61-1.79 3.36-.66.43-1.42.67-2.21.67-1.35 0-2.59-.67-3.34-1.79l-5.81-8.74v189.64h60.239V346.35h-11.96c-1.34 0-2.59-.67-3.33-1.79l-16.989-25.54a3.977 3.977 0 0 1-.59-3c.21-1.05.819-1.96 1.71-2.55a3.966 3.966 0 0 1 2.21-.67c1.35 0 2.59.67 3.33 1.79l15.8 23.76h13.81c1.061 0 2.09.42 2.83 1.17.75.74 1.18 1.78 1.18 2.83v128.26c0 1.061-.42 2.07-1.18 2.83a3.981 3.981 0 0 1-2.83 1.16zm-44.01-170.451a3.998 3.998 0 0 1-2.21-7.33 3.988 3.988 0 0 1 5.54 1.12c.59.88.8 1.95.59 3a3.982 3.982 0 0 1-1.7 2.54c-.66.441-1.43.67-2.22.67z"></path>
		<path d="M289.917 346.35H187.156c-2.2 0-4-1.8-4-4 0-2.21 1.8-4 4-4h100.74l52.091-70.62H100.376l-52.08 70.62h98.86a3.999 3.999 0 1 1 0 8H40.376c-1.5 0-2.9-.87-3.57-2.2-.68-1.34-.54-2.97.35-4.18l57.98-78.62a4.04 4.04 0 0 1 3.22-1.62h249.551c1.489 0 2.899.86 3.569 2.2.67 1.33.54 2.97-.35 4.17l-57.99 78.62a4.004 4.004 0 0 1-3.219 1.63zm-122.761 0c-2.2 0-4-1.8-4-4a3.999 3.999 0 1 1 4 4z"></path>
		<path d="M471.627 346.35h-71.44c-1.34 0-2.59-.67-3.33-1.79l-52.279-78.62a3.973 3.973 0 0 1-.19-4.1c.69-1.3 2.04-2.11 3.521-2.11h70.909c1.341 0 2.58.66 3.32 1.771l52.811 78.62c.819 1.229.899 2.8.199 4.109a3.98 3.98 0 0 1-3.521 2.12zm-69.3-8h61.79l-47.431-70.62h-61.319l46.96 70.62zM158.546 232.49c-1.88 0-3.52-1.33-3.91-3.17-4.52-21.12-13.15-38.46-26.38-53.03-14.9-16.37-35.24-28.9-62.2-38.3-2.08-.73-3.19-3.01-2.46-5.09a4.007 4.007 0 0 1 3.78-2.69c.44 0 .89.08 1.31.22 14.24 4.96 27.03 10.96 38.03 17.84 10.56 6.6 19.8 14.22 27.46 22.64 7.27 7.99 13.37 17 18.12 26.76 4.45 9.12 7.86 19.2 10.16 29.97v.01a4.006 4.006 0 0 1-3.91 4.84z"></path>
		<path d="M64.497 138.17c-1.04 0-2.03-.4-2.78-1.12a4.008 4.008 0 0 1-.11-5.66l20.66-21.48c.77-.79 1.79-1.22 2.89-1.22 1.04 0 2.02.39 2.77 1.11a4.008 4.008 0 0 1 .11 5.66l-20.66 21.48a3.982 3.982 0 0 1-2.88 1.23z"></path>
		<path d="M71.997 167.45c-1.82 0-3.42-1.23-3.87-3.01l-7.51-29.28c-.26-1.03-.11-2.11.43-3.03.55-.92 1.42-1.57 2.45-1.84.33-.08.67-.12 1-.12a3.99 3.99 0 0 1 3.87 3l7.51 29.29c.26 1.03.11 2.11-.43 3.03-.55.92-1.42 1.57-2.45 1.84-.33.08-.661.12-1 .12zM247.707 232.49c-2.21 0-4-1.8-4-4V89.13c0-2.2 1.79-4 4-4 2.2 0 3.99 1.8 3.99 4v139.36c-.001 2.2-1.791 4-3.99 4z"></path>
		<path d="M220.057 111.13c-1.36 0-2.61-.68-3.35-1.82a4 4 0 0 1-.56-3.01c.22-1.05.83-1.94 1.73-2.53l27.64-17.99c.65-.43 1.41-.65 2.18-.65a4 4 0 0 1 2.19 7.35l-27.65 18c-.651.42-1.401.65-2.18.65z"></path>
		<path d="M275.337 111.13c-.771 0-1.53-.23-2.18-.65l-27.641-18a4 4 0 1 1 4.37-6.7l27.63 17.99c.9.59 1.521 1.48 1.74 2.53.22 1.04.021 2.11-.57 3.01a3.974 3.974 0 0 1-3.349 1.82zM183.977 161.14c-2.06 0-3.77-1.54-3.97-3.59-2.2-21.39-10.17-39.09-24.38-54.11-14.66-15.49-36.2-27.86-64.03-36.76a3.993 3.993 0 0 1-2.34-1.98c-.48-.95-.57-2.03-.25-3.05a3.986 3.986 0 0 1 3.81-2.78c.41 0 .82.06 1.22.19 14.63 4.68 27.72 10.33 38.92 16.81 11.12 6.43 20.7 13.85 28.48 22.07 15.29 16.11 24.21 35.9 26.53 58.8.1 1.06-.21 2.1-.88 2.93a3.998 3.998 0 0 1-3.11 1.47z"></path>
		<path d="M92.816 66.87c-1.04 0-2.02-.4-2.77-1.12a3.976 3.976 0 0 1-1.23-2.8c-.02-1.07.38-2.08 1.12-2.85l20.65-21.48c.76-.79 1.79-1.23 2.88-1.23 1.04 0 2.03.4 2.78 1.12.77.74 1.2 1.74 1.22 2.8.02 1.07-.37 2.09-1.11 2.86l-20.66 21.47a3.959 3.959 0 0 1-2.88 1.23z"></path>
		<path d="M100.316 96.16a4 4 0 0 1-3.87-3.01l-7.51-29.29c-.54-2.14.75-4.32 2.89-4.87.32-.08.66-.12.99-.12a3.98 3.98 0 0 1 3.87 3.01l7.51 29.28a4.016 4.016 0 0 1-3.88 5zM352.097 232.49c-.28 0-.56-.03-.84-.09a3.962 3.962 0 0 1-2.52-1.74 3.94 3.94 0 0 1-.551-3.01c2.29-10.77 5.71-20.86 10.15-29.98 4.76-9.76 10.86-18.76 18.13-26.76 7.65-8.42 16.89-16.04 27.46-22.64 10.99-6.87 23.78-12.87 38.021-17.83.42-.15.869-.23 1.319-.23 1.69 0 3.21 1.08 3.771 2.69.35 1 .29 2.09-.181 3.05-.46.96-1.27 1.69-2.279 2.04-26.95 9.4-47.3 21.93-62.19 38.3-13.24 14.57-21.87 31.91-26.38 53.03a4.011 4.011 0 0 1-3.91 3.17z"></path>
		<path d="M446.137 138.17c-1.09 0-2.12-.44-2.88-1.23l-20.66-21.48a4.01 4.01 0 0 1 .11-5.66 3.968 3.968 0 0 1 2.77-1.11c1.101 0 2.13.43 2.891 1.23l20.66 21.48c.739.77 1.13 1.78 1.109 2.85a3.966 3.966 0 0 1-1.22 2.8c-.75.72-1.74 1.12-2.78 1.12z"></path>
		<path d="M438.646 167.45c-.34 0-.67-.04-1-.12a4.009 4.009 0 0 1-2.88-4.87l7.5-29.28a3.988 3.988 0 0 1 3.87-3.01c.34 0 .67.04 1 .12 2.13.55 3.42 2.73 2.88 4.87l-7.5 29.28a3.987 3.987 0 0 1-3.87 3.01zM326.667 161.14c-.14 0-.271 0-.41-.02-2.2-.22-3.8-2.19-3.58-4.38 2.311-22.9 11.23-42.69 26.521-58.8 7.779-8.22 17.359-15.64 28.479-22.07 11.2-6.48 24.3-12.13 38.93-16.81a4.005 4.005 0 0 1 5.031 2.59c.67 2.1-.49 4.36-2.59 5.03-27.83 8.9-49.38 21.26-64.04 36.76-14.21 15.02-22.18 32.72-24.37 54.11a3.978 3.978 0 0 1-3.971 3.59z"></path>
		<path d="M417.827 66.87c-1.101 0-2.12-.44-2.891-1.23l-20.659-21.47a4.01 4.01 0 0 1 .109-5.66 4.001 4.001 0 0 1 5.661.11l20.66 21.48a3.985 3.985 0 0 1-.11 5.65 3.98 3.98 0 0 1-2.77 1.12z"></path>
		<path d="M410.316 96.16a4.016 4.016 0 0 1-3.88-5l7.511-29.28a4 4 0 0 1 3.88-3.01c.33 0 .66.04.989.12a4.005 4.005 0 0 1 2.881 4.87l-7.511 29.29a3.99 3.99 0 0 1-3.87 3.01z"></path>
	</g>
	<!---->
</svg>